# xmcd CD database file
#
# Track frame offsets:
#	150
#	26753
#	41895
#	66935
#	98030
#	125035
#	149523
#	170971
#
# Disc length: 2583 seconds
#
# Revision: 1
# Processed by: cddbd v1.5.2PL0 Copyright (c) Steve Scherf et al.
# Submitted via: CDex 1.51
#
DISCID=7e0a1508
DTITLE=Grupo Niche - Triunfo
DYEAR=1985
DGENRE=Salsa
TTITLE0=Ana Milé
TTITLE1=Las Flores También Se Mueren
TTITLE2=Listo Medellín
TTITLE3=Cicatrices
TTITLE4=Del Puente Pa' Allá
TTITLE5=Interés Cuánto Valés
TTITLE6=Mamá Chila
TTITLE7=La Fiera
EXTD=YEAR: 1985
EXTT0=
EXTT1=
EXTT2=
EXTT3=
EXTT4=
EXTT5=
EXTT6=
EXTT7=
PLAYORDER=
